<?xml version="1.0" standalone="no"?>
<!DOCTYPE svg PUBLIC "-//W3C//DTD SVG 20010904//EN"
 "http://www.w3.org/TR/2001/REC-SVG-20010904/DTD/svg10.dtd">
<svg version="1.0" xmlns="http://www.w3.org/2000/svg"
 width="1280.000000pt" height="862.000000pt" viewBox="0 0 1280.000000 862.000000"
 preserveAspectRatio="xMidYMid meet">
<metadata>
Created by potrace 1.15, written by Peter Selinger 2001-2017
</metadata>
<g transform="translate(0.000000,862.000000) scale(0.100000,-0.100000)" stroke="none">
<path d="M9669 8573 c-15 -49 -39 -70 -39 -33 0 12 -4 18 -10 15 -5 -3 -10
-24 -10 -45 0 -31 -4 -40 -21 -45 -15 -5 -25 -2 -31 9 -5 9 -16 16 -24 16 -8
0 -20 11 -26 25 -7 15 -17 24 -25 21 -7 -3 -13 -1 -13 5 0 16 -20 -1 -41 -35
l-19 -31 0 43 c0 29 -5 45 -15 48 -25 10 -64 -23 -71 -61 -7 -41 -24 -37 -24
6 0 39 -16 34 -43 -12 l-21 -36 22 -28 c12 -15 22 -36 22 -45 0 -10 9 -39 21
-65 15 -34 19 -54 12 -69 -5 -11 -7 -41 -5 -66 2 -25 5 -56 6 -70 1 -14 10
-39 19 -57 9 -18 17 -40 17 -51 0 -10 14 -44 31 -76 17 -32 31 -72 31 -91 0
-43 -20 -105 -42 -130 -10 -11 -20 -32 -24 -47 -3 -16 -10 -28 -14 -28 -15 0
-104 -61 -98 -67 3 -3 23 6 44 21 47 32 48 32 56 0 4 -14 19 -43 33 -65 14
-22 24 -42 21 -44 -4 -4 -30 28 -73 90 -13 20 -14 20 -37 -2 -33 -31 -78 -47
-78 -28 0 8 -6 15 -12 15 -21 -1 -104 -49 -85 -50 10 0 17 -8 17 -20 0 -32 28
-92 57 -122 15 -16 22 -28 17 -28 -16 0 -82 73 -86 95 -2 13 -11 20 -27 20
-20 0 -26 -8 -36 -40 -11 -38 -12 -39 -23 -18 -17 32 -15 51 9 63 43 24 10 17
-85 -16 -55 -19 -106 -40 -113 -46 -7 -6 -15 -9 -17 -7 -4 5 -25 103 -35 160
-8 52 -31 93 -61 109 -30 16 -144 5 -148 -14 -2 -11 -15 -16 -41 -16 -29 0
-44 -7 -69 -33 -30 -31 -32 -37 -32 -112 -1 -74 -3 -82 -28 -106 -15 -15 -36
-29 -47 -31 -12 -2 -20 -11 -20 -25 -1 -11 -6 -28 -13 -36 -11 -12 -10 -22 1
-50 14 -32 13 -37 -4 -63 -10 -16 -19 -38 -19 -50 0 -11 -12 -32 -27 -46 -25
-23 -39 -27 -128 -33 -61 -4 -110 -3 -126 3 -27 11 -50 50 -84 147 -12 33 -35
67 -71 102 -29 29 -58 62 -64 73 -6 12 -21 20 -35 20 -30 0 -69 36 -61 55 7
19 -46 62 -96 77 -35 10 -45 10 -71 -6 -33 -19 -32 -19 -63 31 -10 15 -15 16
-33 5 -18 -10 -24 -10 -36 1 -7 8 -40 17 -72 21 -56 7 -59 6 -86 -25 -27 -29
-28 -35 -24 -107 12 -204 46 -371 84 -419 54 -67 59 -79 44 -106 -12 -22 -11
-29 5 -56 10 -17 34 -37 55 -45 52 -21 86 -93 100 -213 11 -88 10 -91 -17
-142 -27 -52 -27 -55 -14 -120 7 -36 19 -83 26 -105 8 -21 14 -55 14 -75 l-1
-36 -19 24 c-11 13 -20 37 -20 53 0 20 -13 45 -40 77 -39 46 -40 49 -40 125 0
65 -4 83 -22 109 -17 24 -23 46 -23 93 -1 66 -13 91 -47 96 -16 2 -25 17 -38
63 -9 33 -21 69 -27 80 -6 11 -16 32 -21 47 -10 24 -18 28 -72 34 -50 5 -64
11 -77 31 -14 21 -22 24 -51 19 -19 -3 -41 -13 -49 -23 -14 -17 -14 -17 -8 2
7 22 19 144 18 190 -2 72 -22 178 -37 193 -15 15 -19 15 -52 -3 -19 -10 -51
-36 -70 -57 -18 -21 -34 -34 -34 -29 0 6 4 12 9 16 5 3 17 27 26 54 9 27 23
55 31 61 29 25 7 105 -40 149 -22 21 -31 23 -54 15 -15 -5 -38 -26 -51 -47
-32 -49 -45 -34 -26 29 27 89 22 99 -60 120 -24 6 -25 4 -25 -35 0 -47 -18
-87 -50 -114 l-22 -18 7 55 c13 100 -30 113 -119 39 -52 -44 -59 -55 -82 -130
l-26 -81 21 -29 c20 -28 38 -83 27 -83 -3 0 -17 18 -31 40 -30 48 -71 57 -63
15 5 -22 2 -25 -23 -25 -19 0 -30 6 -34 20 -7 22 -26 25 -54 10 -10 -5 -47
-10 -82 -11 -60 -2 -67 -5 -106 -43 -49 -46 -52 -64 -22 -131 32 -73 22 -91
-68 -125 -43 -16 -42 -37 2 -90 19 -22 37 -57 41 -76 3 -19 12 -38 20 -42 7
-4 25 -48 39 -97 14 -50 30 -98 35 -107 14 -25 12 -32 -4 -19 -20 17 -29 -2
-21 -45 4 -25 1 -43 -10 -60 -8 -13 -18 -57 -22 -99 -3 -41 -10 -75 -14 -75
-10 0 -12 13 -9 49 2 22 -1 23 -32 17 -28 -5 -38 -1 -66 25 -18 17 -35 30 -36
28 -2 -2 -9 -14 -15 -26 -9 -18 -20 -23 -51 -23 -65 0 -87 40 -76 135 3 30 2
56 -3 60 -5 3 -15 29 -21 59 -13 62 -57 136 -81 136 -9 0 -33 12 -54 26 -21
14 -45 22 -53 19 -19 -7 -32 11 -32 46 0 14 -16 48 -35 75 -24 33 -34 56 -30
71 7 30 -13 72 -51 109 -18 17 -35 44 -39 60 -3 16 -12 50 -20 75 -8 26 -15
55 -15 65 0 10 -16 32 -35 50 -20 18 -35 41 -35 54 0 19 -3 20 -15 10 -12 -10
-20 -8 -41 9 -36 28 -41 27 -81 -16 -33 -35 -37 -36 -67 -24 -30 11 -32 10
-67 -30 -33 -37 -39 -40 -58 -29 -35 18 -55 5 -47 -31 3 -17 1 -61 -4 -96 -10
-59 -9 -70 11 -110 13 -28 21 -63 21 -96 0 -48 54 -221 79 -253 5 -5 9 -39 10
-75 1 -35 5 -68 9 -74 6 -9 29 -106 36 -150 15 -99 15 -133 -1 -175 -23 -60
-27 -120 -9 -127 20 -7 17 -20 -6 -26 -12 -3 -20 -14 -20 -26 0 -28 -47 -121
-61 -121 -7 0 -10 -20 -9 -52 3 -73 2 -88 -10 -88 -6 0 -10 30 -10 70 0 60 3
71 21 80 40 22 10 22 -53 0 -44 -16 -89 -23 -150 -24 l-88 -1 -2 -55 c0 -30 0
-65 1 -77 1 -16 -4 -23 -15 -23 -14 0 -16 7 -10 53 3 28 9 109 13 179 6 126 6
128 -18 147 -17 13 -28 16 -36 9 -7 -5 -17 -7 -22 -3 -6 3 -27 -14 -48 -37
-20 -24 -79 -84 -129 -133 -62 -61 -94 -100 -98 -120 -18 -88 -30 -136 -48
-195 -17 -57 -18 -73 -8 -125 23 -119 33 -160 56 -217 31 -76 31 -98 -1 -98
-31 0 -46 27 -95 175 -36 107 -61 145 -79 117 -17 -28 -20 -156 -6 -227 19
-88 19 -149 1 -183 -7 -15 -18 -47 -24 -72 -9 -39 -7 -52 13 -101 26 -61 48
-248 28 -236 -6 4 -14 40 -18 79 -4 40 -16 90 -26 110 -11 21 -19 44 -19 53 0
8 -18 54 -41 100 -33 70 -39 91 -33 118 13 61 12 190 -4 221 -11 22 -11 34 -3
53 10 21 8 25 -14 33 -15 6 -35 31 -55 70 -22 44 -36 60 -51 60 -11 0 -54 -23
-95 -52 -40 -28 -77 -49 -80 -45 -6 6 38 61 113 142 59 62 73 95 73 170 0 95
-6 113 -41 120 -38 9 -68 -11 -109 -70 -31 -45 -60 -59 -60 -29 0 10 20 42 45
72 50 61 51 62 30 101 -19 38 -36 43 -125 36 -66 -6 -80 -4 -120 17 -40 20
-46 28 -52 67 -4 24 -13 49 -19 57 -9 11 -8 18 5 32 9 10 16 26 16 36 0 33
-40 94 -75 116 -35 21 -35 23 -16 36 29 21 49 7 81 -55 39 -78 98 -147 123
-143 11 1 25 -2 31 -7 6 -4 34 -11 62 -15 l51 -6 38 47 c21 27 50 58 64 70
l26 21 -28 13 c-16 7 -35 25 -43 41 -13 25 -17 26 -39 16 -20 -9 -28 -9 -38 1
-16 17 11 36 62 45 59 9 129 99 146 188 6 32 4 38 -23 57 l-30 21 29 30 c26
26 29 33 23 72 -13 84 -19 91 -67 84 -23 -4 -62 -9 -87 -12 -45 -5 -45 -5 -23
13 12 10 34 27 49 37 22 15 24 20 12 27 -18 10 -137 -12 -191 -35 -44 -19 -57
-15 -57 20 0 16 6 24 18 24 9 0 26 7 36 15 11 8 39 15 62 15 24 0 47 6 54 14
7 9 40 18 81 22 85 8 90 24 24 79 l-46 37 -49 -21 c-72 -31 -83 -28 -113 28
-14 27 -23 52 -20 55 3 3 18 2 34 -1 l28 -5 -24 58 c-13 33 -28 59 -32 58 -4
0 -23 -4 -41 -9 l-33 -8 6 -71 c6 -77 4 -82 -38 -110 -35 -22 -45 -15 -23 16
9 13 23 33 33 46 16 22 15 24 -9 49 -25 25 -26 25 -52 8 -20 -13 -30 -15 -38
-7 -14 14 -16 107 -5 140 7 19 5 24 -12 29 -26 7 -26 8 0 50 l21 34 -25 27
c-18 18 -25 34 -21 48 5 19 -1 22 -57 34 -46 10 -73 23 -101 48 l-38 34 -36
-21 c-51 -30 -55 -18 -10 28 34 35 38 43 32 74 -9 49 -39 85 -58 70 -18 -16
-93 -32 -106 -24 -6 3 -12 27 -14 51 l-3 45 -14 -40 c-18 -54 -32 -70 -42 -53
-5 7 -9 23 -9 36 0 27 -8 27 -40 2 -47 -37 -60 -21 -41 47 7 23 5 37 -5 50
-19 25 -17 47 6 68 27 24 25 33 -6 27 -23 -4 -26 -2 -23 24 3 31 -25 68 -92
116 -36 26 -60 71 -78 143 -7 27 -23 49 -46 68 -20 16 -39 27 -41 24 -3 -3 4
-24 16 -47 21 -41 20 -69 -3 -89 -10 -8 -29 8 -77 64 -35 41 -71 75 -80 75
-24 0 -40 -21 -40 -53 0 -38 -15 -64 -48 -81 -33 -17 -59 -8 -75 24 -8 15 -28
30 -51 38 -21 7 -54 26 -73 42 -28 25 -43 30 -83 30 -27 0 -51 -4 -54 -8 -6
-10 32 -47 82 -81 22 -15 32 -30 32 -48 0 -29 -23 -27 -29 3 -7 42 -32 56 -86
49 -79 -10 -85 -13 -85 -46 0 -16 -2 -29 -5 -29 -3 0 -19 16 -36 35 -53 60
-97 42 -54 -21 14 -20 25 -43 25 -51 0 -8 14 -19 30 -25 59 -20 60 -73 1 -115
-39 -29 -58 -29 -103 2 -45 31 -48 31 -48 1 0 -44 161 -156 225 -156 53 0 105
27 132 70 25 39 34 50 81 86 38 31 42 14 7 -28 -28 -33 -33 -76 -10 -84 8 -3
35 4 59 15 34 17 49 33 65 67 22 47 25 49 79 58 41 7 43 -12 2 -27 -24 -9 -33
-21 -41 -52 -5 -22 -18 -55 -27 -73 -16 -32 -16 -34 2 -48 12 -8 44 -14 81
-14 57 0 63 2 98 38 20 21 37 46 37 56 0 29 33 15 37 -16 5 -35 -30 -84 -69
-97 -34 -12 -37 -36 -5 -45 35 -9 91 -7 125 5 17 6 41 9 54 7 19 -4 14 -9 -32
-31 -30 -15 -64 -27 -75 -27 -11 0 -36 -6 -57 -13 -30 -11 -35 -16 -27 -30 6
-9 7 -22 4 -27 -11 -18 -31 -11 -53 20 -18 24 -30 30 -58 30 -23 0 -51 11 -79
30 -44 30 -45 31 -110 19 -55 -9 -68 -15 -75 -35 -8 -20 -17 -24 -48 -24 -21
0 -43 -5 -50 -12 -20 -20 -13 -71 17 -124 38 -66 91 -111 146 -125 24 -6 50
-17 56 -25 6 -8 22 -14 34 -14 12 0 28 -6 34 -14 6 -7 45 -28 86 -46 41 -18
75 -38 75 -45 0 -21 33 -42 93 -59 55 -16 68 -28 47 -41 -5 -3 -10 -15 -10
-26 0 -11 -7 -30 -15 -43 -15 -22 -13 -26 25 -72 52 -63 70 -102 80 -177 5
-35 18 -73 30 -90 12 -16 20 -29 18 -30 -34 -18 -44 -29 -49 -60 -3 -19 -13
-47 -22 -61 -9 -14 -17 -34 -17 -44 0 -19 -135 -172 -151 -172 -5 0 13 29 40
65 27 35 53 74 56 87 4 13 16 43 27 67 25 56 35 145 18 156 -10 6 -12 1 -8
-21 3 -16 2 -38 -2 -49 -7 -19 -7 -19 -14 3 -4 13 -5 45 -1 71 5 36 3 50 -8
60 -10 8 -17 9 -22 1 -12 -20 -24 -10 -31 28 -12 65 -21 69 -33 14 -6 -29 -22
-73 -35 -99 -13 -27 -27 -69 -31 -95 -3 -25 -13 -52 -20 -58 -8 -7 -15 -26
-15 -42 0 -29 -27 -94 -36 -85 -6 5 10 78 41 182 13 44 26 111 30 149 4 38 9
76 12 83 3 9 -2 16 -14 19 -13 4 -22 19 -29 47 -6 30 -15 43 -29 45 -28 5 -45
30 -45 69 0 31 -1 32 -30 26 -22 -4 -36 0 -50 12 -18 16 -20 16 -25 1 -3 -9
-8 -24 -11 -33 -3 -10 -7 -76 -10 -147 -4 -122 -5 -132 -39 -200 -37 -77 -45
-66 -21 31 20 80 28 175 17 192 -14 21 -30 4 -42 -42 -10 -41 -119 -187 -140
-187 -14 0 14 50 55 98 57 69 101 208 78 248 -9 15 -11 16 -15 4 -2 -8 -13
-44 -25 -80 -13 -38 -19 -75 -15 -89 4 -17 2 -22 -8 -19 -21 7 -30 68 -13 100
12 23 12 34 2 68 -7 22 -15 40 -18 40 -4 0 -14 -23 -24 -51 -19 -53 -99 -169
-116 -169 -13 0 -13 17 0 25 6 3 10 15 10 25 0 10 18 39 39 64 50 58 54 71 42
144 -11 70 -35 122 -56 122 -8 0 -27 -18 -41 -40 -38 -57 -73 -50 -51 10 15
41 -7 103 -54 145 -22 20 -46 35 -52 33 -7 -2 -20 -21 -31 -42 -23 -46 -28
-43 -14 9 21 82 -20 118 -170 150 -78 16 -98 13 -105 -15 -3 -13 -11 -17 -26
-13 -16 4 -34 -7 -72 -45 -28 -28 -48 -56 -44 -61 3 -6 21 -11 38 -11 64 0
104 -19 146 -69 54 -64 53 -86 -1 -34 -24 22 -58 49 -75 59 -32 18 -33 18 -72
-4 -21 -12 -53 -22 -70 -22 -22 0 -31 -5 -31 -16 0 -23 171 -183 196 -184 25
0 94 -72 94 -98 0 -10 7 -28 16 -40 20 -28 13 -38 -16 -22 -13 7 -19 17 -16
27 9 24 -4 62 -20 56 -7 -2 -40 5 -74 16 -33 12 -68 21 -78 21 -9 0 -33 11
-52 24 -19 13 -51 26 -70 30 -19 4 -52 14 -72 23 -43 18 -58 11 -85 -40 -39
-76 9 -173 146 -292 49 -43 92 -86 94 -96 6 -24 81 -58 125 -59 26 0 36 -6 53
-34 20 -35 48 -46 115 -46 19 0 34 -4 34 -9 0 -17 -13 -19 -79 -11 -52 7 -69
14 -97 41 -32 31 -35 32 -93 26 -59 -6 -62 -6 -95 27 -69 70 -163 96 -235 67
-49 -21 -54 -48 -26 -132 14 -40 25 -80 25 -89 0 -16 88 -134 117 -157 8 -6
34 -15 56 -18 23 -4 63 -18 88 -31 46 -23 50 -23 191 -14 164 11 196 19 245
55 32 26 63 28 63 5 0 -6 -14 -19 -30 -28 -25 -14 -29 -22 -25 -41 8 -32 -9
-41 -65 -34 -35 4 -56 0 -88 -16 -32 -16 -51 -20 -82 -15 -45 7 -114 -17 -125
-43 -8 -23 57 -79 122 -103 48 -18 61 -19 86 -9 16 7 41 13 56 14 14 1 35 5
46 9 46 18 -16 -22 -80 -50 l-65 -29 6 -37 c5 -35 4 -38 -17 -38 -12 0 -33 10
-46 22 l-24 22 -6 -22 c-4 -17 -9 -20 -18 -12 -9 8 -17 4 -28 -13 -23 -36 -48
-58 -57 -52 -9 6 2 62 18 90 7 14 6 27 -3 49 -8 17 -16 39 -19 49 -5 15 -9 16
-26 7 -18 -10 -20 -8 -20 25 0 27 -5 38 -22 45 -132 53 -229 99 -269 127 -27
18 -55 33 -62 33 -7 0 -26 13 -42 30 -16 16 -34 30 -41 30 -6 0 -17 7 -24 14
-13 17 -109 48 -122 40 -16 -10 -7 -115 17 -192 35 -112 58 -141 135 -173 42
-18 78 -42 106 -72 23 -25 51 -48 63 -52 20 -6 57 -62 48 -72 -3 -2 -20 9 -38
25 -65 55 -160 99 -232 106 -49 6 -67 4 -67 -4 0 -17 65 -106 122 -165 26 -27
65 -70 86 -94 35 -39 45 -45 81 -45 22 -1 41 -4 41 -8 0 -4 -16 -19 -35 -34
-30 -23 -39 -25 -59 -16 -27 12 -70 66 -80 98 -7 23 -32 34 -79 34 -16 0 -36
10 -48 25 -12 13 -34 27 -48 30 -14 3 -33 18 -43 35 -22 39 -89 80 -157 96
-73 17 -68 18 -76 -13 -3 -16 -16 -36 -28 -45 -19 -14 -22 -27 -22 -85 l0 -68
-43 -20 c-23 -11 -45 -27 -48 -37 -3 -10 -25 -32 -50 -48 -24 -17 -44 -37 -44
-45 0 -8 14 -22 32 -31 29 -15 38 -15 129 1 54 9 103 14 109 10 6 -4 22 0 35
9 13 9 36 16 50 16 25 0 150 -61 205 -100 l30 -21 0 21 c0 16 4 20 16 16 9 -3
27 -9 40 -12 18 -5 24 -13 24 -35 0 -17 -5 -29 -13 -29 -10 0 -12 -11 -8 -41
6 -39 8 -41 63 -60 57 -19 58 -19 130 1 40 11 83 20 95 20 26 0 56 41 74 101
10 31 15 36 43 36 46 1 106 17 153 41 23 12 49 22 57 22 8 0 26 14 39 31 24
31 25 31 36 12 22 -43 145 -69 183 -39 35 26 45 61 34 116 -9 46 -8 56 14 96
13 25 31 49 41 55 17 9 18 5 16 -43 -2 -51 -1 -53 26 -56 16 -2 31 -10 34 -18
7 -20 46 -17 75 6 14 11 38 49 53 85 29 69 48 79 53 29 6 -57 10 -59 47 -24
19 19 35 42 35 51 0 10 3 24 6 33 5 13 10 12 35 -6 36 -27 37 -47 4 -78 -34
-32 -66 -88 -54 -95 5 -4 9 -15 9 -26 0 -16 5 -18 25 -13 29 7 65 -18 65 -46
0 -17 38 -35 49 -24 3 2 -5 66 -17 142 -12 75 -22 149 -22 165 0 24 2 26 19
15 17 -10 23 -9 41 7 33 30 37 7 6 -48 l-28 -52 20 -60 c31 -91 51 -135 62
-135 5 0 20 36 34 80 20 61 23 86 16 106 -12 31 -13 81 -1 88 10 7 21 -66 21
-145 0 -41 5 -63 17 -74 16 -16 17 -16 30 1 17 24 36 92 28 104 -11 18 -13
142 -2 131 16 -16 46 -169 47 -236 0 -85 8 -93 59 -64 42 23 45 27 41 67 -2
29 16 29 24 0 5 -22 8 -20 54 25 26 26 50 47 54 47 13 0 -5 -39 -28 -61 -30
-28 -17 -49 30 -49 45 0 97 42 145 118 22 34 43 62 47 62 3 0 -1 -11 -9 -24
-9 -12 -18 -38 -22 -57 -7 -38 -67 -109 -91 -109 -31 0 -129 -32 -147 -49 -47
-40 -41 -84 12 -96 17 -3 43 -21 60 -40 30 -35 79 -65 105 -65 14 0 29 23 90
138 13 25 20 55 19 90 -1 29 2 50 7 47 13 -8 52 -87 59 -119 9 -41 31 -46 31
-7 0 33 34 76 50 66 6 -4 10 -19 10 -34 0 -16 9 -36 21 -47 21 -19 22 -45 4
-88 -7 -16 -5 -17 11 -9 42 22 85 23 124 3 50 -26 56 -25 102 7 30 20 41 24
51 14 19 -19 -4 -44 -67 -69 -32 -13 -81 -26 -109 -29 -57 -7 -93 -29 -118
-71 -8 -15 -25 -28 -36 -30 -11 -2 -33 -16 -48 -33 -16 -16 -38 -29 -49 -29
-12 -1 -29 -14 -41 -32 -26 -40 -110 -98 -143 -98 -14 0 -33 -7 -42 -15 -9 -8
-34 -21 -55 -28 -31 -11 -41 -21 -47 -46 -5 -17 -13 -29 -19 -25 -14 8 -38
-14 -53 -51 -10 -24 -22 -34 -45 -38 -26 -6 -36 -15 -53 -54 -11 -27 -27 -56
-36 -66 -14 -16 -13 -17 14 -11 16 3 43 0 59 -6 30 -12 30 -12 7 -21 -12 -5
-25 -15 -28 -24 -5 -12 -15 -14 -40 -9 -35 6 -41 0 -25 -25 5 -8 16 -11 26 -8
9 4 29 0 46 -8 28 -15 48 -11 111 23 3 1 9 -6 13 -18 4 -11 28 -31 54 -44 26
-14 53 -31 60 -40 8 -9 40 -17 92 -22 47 -4 83 -12 90 -20 7 -9 32 -14 68 -14
44 0 67 6 106 30 65 39 167 133 170 156 1 11 5 34 10 52 7 30 10 32 51 32 23
0 46 -4 49 -10 3 -5 7 -38 8 -73 2 -49 -3 -75 -22 -115 -14 -29 -28 -52 -33
-52 -4 0 -8 -13 -8 -28 0 -17 -10 -38 -25 -52 -30 -29 -31 -33 -4 -70 16 -21
20 -36 15 -62 l-6 -34 -123 2 c-86 2 -133 7 -160 18 -21 9 -43 13 -50 9 -7 -4
-20 -6 -29 -5 -11 2 -18 -3 -18 -12 0 -18 -16 -21 -25 -6 -3 6 -23 10 -45 10
-23 0 -40 5 -43 14 -3 8 -21 17 -39 21 -18 4 -45 16 -60 27 -30 21 -46 19
-108 -10 -31 -14 -84 -18 -154 -9 -12 1 -25 -7 -33 -23 -7 -14 -19 -24 -27
-22 -7 1 -19 -11 -25 -27 -11 -24 -9 -33 8 -62 34 -56 24 -63 -24 -17 -32 31
-45 51 -45 72 0 24 -3 27 -20 22 -11 -3 -30 -9 -42 -12 l-23 -7 23 26 c24 25
36 83 20 93 -5 3 -16 0 -25 -8 -15 -12 -15 -11 -3 9 11 18 12 24 1 37 -17 20
-31 20 -31 1 0 -26 -28 -61 -70 -89 -22 -15 -40 -31 -40 -36 0 -6 18 -10 40
-10 45 0 53 -16 16 -30 -13 -5 -27 -14 -31 -19 -3 -6 -17 -11 -31 -11 -33 0
-64 -17 -64 -35 0 -23 -16 -18 -34 10 -12 19 -25 25 -51 25 -29 0 -39 -6 -56
-32 -13 -22 -18 -43 -14 -61 5 -28 4 -28 -33 -25 l-37 3 4 -40 c7 -69 6 -88
-6 -92 -6 -2 -16 12 -23 31 -6 19 -17 37 -25 40 -23 8 -18 34 10 52 20 13 23
19 14 31 -10 11 -7 20 10 44 22 30 21 49 -4 49 -8 0 -30 8 -50 17 -34 16 -36
16 -57 -4 -20 -21 -21 -25 -9 -90 13 -69 15 -119 5 -134 -3 -5 -25 -9 -50 -9
-42 0 -44 1 -44 29 0 36 -15 48 -30 24 -10 -15 -10 -14 -6 8 8 38 -21 71 -51
59 -16 -6 -23 -18 -23 -35 0 -28 2 -27 -60 -15 -54 10 -80 -3 -100 -50 -9 -22
-22 -33 -42 -37 -16 -3 -37 -17 -46 -32 -9 -14 -21 -29 -27 -33 -17 -13 -70
-9 -91 7 -10 8 -26 15 -35 15 -8 0 -35 17 -58 37 -41 35 -45 36 -75 24 -17 -7
-42 -15 -56 -18 -14 -3 -29 -12 -33 -19 -13 -23 -94 -74 -127 -80 -16 -4 -30
-10 -30 -14 0 -18 53 -136 66 -146 7 -6 20 -29 28 -50 8 -21 26 -65 40 -96 23
-53 30 -59 93 -89 l68 -32 59 21 c39 15 64 19 75 12 22 -11 31 -4 64 45 17 25
27 53 27 77 0 27 6 41 22 52 31 22 52 20 111 -9 70 -36 97 -31 121 23 l19 42
68 0 c55 0 83 -7 151 -35 74 -32 92 -36 173 -36 237 0 295 -8 332 -42 34 -31
41 -11 8 23 l-29 30 55 0 c50 0 57 -3 78 -30 24 -33 21 -53 -7 -43 -12 4 -14
3 -6 -6 16 -18 104 -3 104 18 0 10 14 27 31 40 24 18 33 20 44 11 11 -9 20 -7
42 10 24 19 28 20 31 6 5 -24 19 -19 26 9 4 14 11 25 16 25 13 0 13 -12 -1
-47 -16 -39 -21 -116 -7 -107 18 12 81 13 100 3 23 -13 23 -41 0 -56 -13 -8
-18 -20 -15 -40 4 -24 -3 -38 -42 -77 -61 -63 -46 -82 21 -26 27 22 60 43 74
47 14 3 42 19 63 35 20 16 37 26 37 21 0 -19 -58 -64 -103 -79 -46 -16 -47
-17 -31 -35 15 -17 15 -19 1 -19 -16 0 -31 -30 -32 -64 0 -29 -19 -30 -53 -1
-46 39 -61 30 -20 -12 20 -21 41 -50 47 -65 7 -20 15 -26 27 -21 14 5 15 3 4
-16 -16 -30 -4 -118 18 -130 11 -6 29 -2 59 14 23 14 45 20 48 16 3 -5 7 -28
10 -52 3 -24 13 -47 21 -52 13 -7 12 -13 -5 -43 -24 -41 -27 -66 -7 -58 8 3
17 -2 20 -13 3 -10 20 -34 37 -53 28 -30 32 -32 41 -16 7 12 17 16 34 12 29
-8 46 19 42 69 -1 19 3 40 10 47 7 7 12 23 12 38 1 14 12 45 26 70 16 29 23
36 20 20 -4 -14 -9 -42 -12 -63 -7 -38 -7 -38 22 -32 16 4 45 24 64 46 28 31
40 37 61 33 19 -4 33 1 53 19 34 32 62 25 76 -19 14 -41 9 -49 -36 -64 -32
-11 -39 -10 -65 9 l-29 21 6 -28 c5 -23 1 -32 -21 -46 -15 -10 -29 -15 -33
-12 -3 3 -16 -11 -28 -32 -17 -27 -23 -52 -24 -94 0 -32 -4 -58 -10 -58 -5 0
-10 7 -10 15 0 8 -5 15 -10 15 -6 0 -8 -10 -4 -24 3 -14 -1 -37 -11 -56 -15
-30 -15 -34 5 -76 12 -24 26 -44 32 -44 6 0 19 11 30 25 20 26 52 33 64 14 3
-6 17 -9 30 -6 27 5 30 -1 11 -27 -9 -12 -30 -20 -58 -22 -33 -3 -49 -11 -65
-30 -12 -15 -26 -24 -32 -20 -6 3 -23 -11 -39 -31 -15 -21 -34 -42 -40 -46
-21 -13 -15 -27 13 -27 18 0 28 -6 31 -21 5 -19 12 -21 73 -17 57 3 76 9 139
47 40 25 80 56 89 70 9 14 22 29 28 33 6 4 17 20 23 35 11 28 75 74 118 87 12
4 32 1 45 -6 13 -7 61 -15 107 -18 57 -3 86 -9 89 -18 2 -7 -5 -16 -17 -19
-12 -3 -21 -9 -21 -14 0 -15 16 -10 44 12 14 11 36 19 48 16 23 -3 23 -4 -3
-14 -14 -6 -33 -23 -42 -37 -20 -29 -61 -35 -71 -10 -4 12 -13 14 -32 10 -17
-5 -33 -1 -50 13 -28 22 -45 19 -99 -18 -44 -30 -48 -43 -13 -52 41 -11 -6
-22 -62 -15 -44 6 -50 4 -61 -16 -7 -12 -39 -56 -71 -97 -33 -42 -62 -88 -65
-103 -3 -16 -10 -31 -14 -34 -13 -7 -11 -44 2 -44 6 0 18 4 28 10 25 13 65
-15 58 -41 -4 -14 0 -19 13 -19 10 0 31 -5 47 -11 23 -9 25 -12 12 -19 -24
-14 -17 -55 10 -54 12 0 20 -4 18 -10 -2 -6 -27 -12 -56 -14 l-53 -3 6 -49 c4
-29 2 -51 -4 -55 -5 -3 -11 0 -12 7 -2 25 -4 33 -12 56 -7 22 -9 22 -25 8 -14
-13 -34 -15 -90 -12 l-72 5 26 -32 c14 -18 29 -37 35 -43 5 -7 14 -14 21 -16
8 -3 10 -14 5 -31 -7 -31 -39 -37 -71 -13 -17 12 -55 11 -55 -2 0 -4 19 -25
41 -48 l42 -42 -29 -27 c-15 -14 -37 -25 -48 -24 -60 4 -79 -3 -125 -46 -53
-49 -69 -53 -111 -28 -28 16 -30 16 -87 -14 -42 -23 -65 -44 -84 -75 -28 -47
-31 -48 -131 -33 -45 7 -48 9 -48 39 0 65 -19 100 -89 170 -44 43 -75 67 -84
63 -17 -7 -29 -63 -28 -136 0 -43 -5 -60 -25 -84 -40 -48 -13 -105 62 -126 46
-13 48 -14 20 -20 -26 -6 -31 -13 -53 -94 -24 -81 -24 -89 -9 -106 21 -23 20
-37 -5 -78 -20 -31 -20 -35 -5 -58 20 -31 39 -31 78 -3 28 19 35 20 75 10 62
-17 72 -15 85 13 8 18 17 24 30 19 11 -3 30 2 45 11 17 11 28 14 35 7 7 -7 25
0 54 21 41 29 45 30 62 14 10 -9 25 -17 33 -17 8 0 38 -9 68 -20 34 -14 61
-18 75 -13 11 4 53 8 91 9 39 0 112 5 163 12 74 8 100 16 127 36 69 53 78 52
135 -14 29 -32 58 -61 65 -64 7 -2 55 9 105 25 53 17 122 31 159 33 36 2 72 4
79 5 7 0 12 15 12 36 0 43 27 58 110 57 l55 0 -43 20 c-24 10 -46 26 -49 34
-9 24 11 58 43 73 16 7 42 20 57 28 17 9 39 12 57 8 43 -10 37 -23 -12 -27
-39 -3 -43 -5 -40 -28 1 -14 4 -46 5 -73 2 -26 7 -51 13 -55 59 -51 132 -96
162 -103 92 -19 117 -30 151 -62 74 -71 159 -120 145 -84 -3 8 10 20 30 30 39
18 86 96 86 142 0 15 4 24 10 20 6 -3 10 -35 10 -70 0 -54 -4 -68 -26 -94 -15
-18 -39 -33 -60 -37 -41 -8 -43 -15 -6 -36 15 -9 67 -50 117 -92 49 -41 93
-72 97 -70 5 3 8 22 8 42 0 20 5 44 10 52 8 10 9 -4 4 -47 l-6 -61 187 -184
c207 -202 249 -235 318 -244 l47 -7 20 44 c11 24 20 58 20 74 1 17 6 39 11 50
7 14 8 4 5 -36 -2 -31 -12 -71 -21 -89 -9 -17 -15 -34 -13 -36 2 -2 22 1 44 8
50 13 179 4 302 -22 65 -14 135 -39 230 -84 160 -75 192 -86 192 -62 0 12 9 8
33 -16 19 -18 55 -42 82 -52 47 -19 48 -19 62 0 13 18 14 17 8 -7 -6 -24 -1
-29 58 -63 80 -44 147 -50 105 -8 -9 9 -8 12 4 12 8 0 21 -7 28 -15 16 -19 54
-19 70 0 18 22 64 18 155 -12 62 -20 101 -26 175 -27 92 -1 99 1 210 47 76 32
158 57 240 73 116 24 174 44 123 44 -35 0 -51 26 -58 95 -5 40 -15 75 -26 89
-11 13 -19 30 -19 38 0 8 -7 23 -15 34 -8 10 -15 26 -15 35 0 9 -13 35 -30 57
-16 23 -30 44 -30 46 0 2 18 -3 40 -11 25 -10 40 -22 40 -33 0 -10 6 -23 14
-29 8 -7 18 -25 21 -41 3 -15 15 -36 25 -45 11 -10 31 -53 45 -96 15 -43 31
-81 36 -84 5 -4 9 -17 9 -31 0 -47 47 -31 190 67 134 91 160 119 193 209 22
60 22 60 -15 55 -33 -5 -33 -5 -7 7 14 7 34 19 43 27 20 17 66 104 66 125 0 8
9 18 20 21 11 3 20 10 20 15 0 5 23 34 51 64 57 62 140 113 239 145 87 28 128
55 145 94 l14 32 1 -32 c0 -39 2 -39 48 -11 20 12 32 16 28 10 -5 -9 16 -12
86 -11 123 0 170 9 158 29 -7 12 -12 12 -22 2 -14 -14 -58 -16 -58 -2 0 5 -7
7 -15 4 -20 -8 -29 19 -15 48 l11 23 -19 -24 c-32 -39 -37 -6 -7 50 22 44 25
55 15 83 -7 22 -7 41 -1 57 l10 24 7 -23 c8 -26 11 -27 32 -6 22 23 27 4 13
-53 -7 -25 -10 -47 -9 -49 8 -8 72 52 85 80 l14 31 -6 -39 c-5 -29 -3 -37 7
-34 8 3 16 28 19 62 8 72 19 84 19 22 0 -34 4 -46 13 -44 7 3 15 35 19 83 9
95 18 109 18 27 0 -57 11 -85 25 -62 11 18 23 11 30 -17 6 -24 9 -26 18 -12 9
15 13 15 37 1 26 -15 70 -94 70 -126 0 -9 5 -16 11 -16 5 0 15 -15 22 -32 l12
-33 5 45 c6 51 22 59 31 15 4 -16 7 -22 8 -12 2 32 31 76 59 91 15 8 50 17 77
22 45 6 58 15 129 86 43 43 83 78 89 78 13 0 -5 -23 -102 -123 -46 -48 -81
-90 -77 -94 8 -8 165 159 222 236 23 31 56 70 74 86 17 17 48 52 67 78 19 26
70 74 112 107 42 32 117 99 166 150 111 113 151 142 251 178 44 16 93 37 109
46 30 17 30 17 3 12 -14 -3 -34 -9 -45 -12 -10 -4 2 11 27 32 25 21 58 53 73
69 l29 30 -21 -42 c-28 -56 -26 -62 7 -31 28 26 113 60 192 77 25 5 63 14 85
20 22 6 60 11 85 11 33 0 41 3 30 10 -8 6 -40 7 -70 4 -48 -5 -58 -3 -80 18
l-24 23 46 6 c57 9 91 26 84 44 -3 8 0 17 5 21 6 3 8 19 5 35 -3 15 -1 31 4
34 22 14 -10 123 -49 169 -9 11 5 5 31 -13 59 -42 82 -89 75 -146 -5 -33 -2
-46 12 -59 10 -9 22 -16 28 -16 6 0 18 -10 26 -22 l16 -23 0 23 c1 12 5 22 10
22 5 0 16 2 24 6 11 4 14 -6 13 -48 -1 -41 3 -53 15 -56 11 -2 18 7 23 29 5
27 9 31 32 26 22 -4 28 0 36 24 5 16 16 29 23 29 21 0 75 -57 75 -79 0 -22 -4
-25 -52 -35 -53 -12 -28 -21 55 -21 80 0 82 1 85 25 2 14 9 30 15 35 59 52 71
101 21 89 -39 -10 -40 20 -4 77 23 35 35 46 41 38 6 -10 12 -9 28 5 26 24 26
36 1 83 -11 21 -20 56 -20 79 0 47 -16 65 -72 83 -35 12 -88 61 -88 82 0 17
56 -19 67 -44 8 -16 23 -27 45 -31 23 -5 41 -18 61 -47 15 -21 27 -46 27 -54
0 -34 29 -85 49 -85 34 0 53 11 41 25 -8 9 -1 20 26 40 20 15 42 42 50 60 13
31 16 33 61 31 27 -1 61 -9 76 -17 l28 -15 -63 -18 c-82 -23 -148 -52 -148
-66 0 -6 22 1 48 14 27 13 77 30 113 36 81 15 93 22 97 50 2 13 11 34 19 46 8
13 12 27 9 32 -6 10 16 98 33 129 8 16 8 28 0 47 -10 22 -7 31 23 73 20 26 43
63 52 80 9 18 29 39 45 48 16 8 33 24 36 35 4 11 18 32 31 45 14 14 22 30 18
37 -8 13 -64 -47 -64 -68 0 -7 -14 -22 -30 -34 -17 -12 -39 -39 -50 -60 -22
-43 -64 -80 -91 -80 -25 0 -50 39 -43 66 5 19 2 22 -14 17 -14 -3 -22 1 -27
16 -8 27 1 41 26 41 11 0 29 5 39 10 13 7 21 7 25 0 9 -15 77 -1 93 18 19 24
14 56 -11 80 -13 12 -28 22 -33 22 -11 0 -37 40 -31 47 3 2 27 5 53 5 47 1
107 -16 135 -38 16 -13 84 -25 92 -17 3 3 -2 20 -11 39 -12 24 -22 33 -34 30
-10 -2 -18 -1 -18 3 0 4 -11 13 -25 19 -14 6 -25 18 -25 26 0 7 -11 21 -25 30
-13 9 -28 32 -34 51 -15 55 -35 95 -47 95 -6 0 -21 11 -34 25 -20 21 -21 27
-9 41 12 14 10 19 -10 35 -13 11 -21 22 -18 25 10 10 45 -16 65 -49 12 -18 32
-43 46 -56 14 -14 26 -30 26 -37 0 -6 7 -15 15 -18 9 -3 21 -19 26 -36 6 -16
16 -30 23 -30 6 0 28 -11 48 -25 45 -30 62 -31 135 -5 32 11 67 20 79 20 11 0
29 9 39 20 10 11 23 20 30 20 15 0 45 33 45 49 0 7 -11 29 -25 49 -59 87 -26
109 178 113 29 1 37 5 37 19 0 12 -21 29 -67 51 -65 32 -67 33 -37 37 18 2 49
-4 69 -12 35 -15 39 -15 66 5 28 20 59 66 59 88 0 6 -17 20 -37 31 -21 11 -50
29 -64 41 -15 11 -57 27 -95 35 -59 13 -140 51 -129 62 2 2 20 -2 42 -8 21 -7
79 -16 128 -21 50 -5 115 -11 146 -15 60 -7 89 8 89 47 0 15 -7 19 -34 19 -24
0 -47 10 -78 35 -24 19 -58 42 -76 52 -18 9 -35 27 -38 39 -10 37 -59 77 -87
70 -15 -3 -42 2 -67 13 -34 15 -58 18 -119 14 -51 -3 -86 -1 -106 8 l-30 13
40 3 c53 4 125 23 150 40 11 7 32 13 47 13 32 0 34 6 13 34 -28 37 -17 48 23
22 21 -13 65 -37 97 -54 68 -34 92 -57 120 -116 19 -39 23 -41 75 -49 71 -11
126 -3 152 20 16 15 19 26 14 63 -6 45 -6 46 28 58 38 14 86 64 86 90 0 9 -11
28 -25 42 -25 26 -25 28 -10 63 8 20 15 64 15 98 l0 62 -34 -34 c-20 -20 -39
-53 -46 -79 -14 -51 -37 -100 -48 -100 -4 0 -7 15 -7 33 0 30 -2 32 -30 29
-28 -3 -29 -3 -12 16 31 34 24 44 -33 46 -37 1 -31 29 8 37 18 4 41 14 51 23
21 19 37 84 24 97 -5 5 -50 4 -100 -2 -80 -9 -96 -8 -124 7 -32 16 -57 16
-159 -1 l-35 -5 40 16 c27 12 67 16 125 16 47 -1 99 3 115 8 17 5 49 14 72 19
33 9 47 20 72 59 17 27 31 53 31 57 0 5 7 16 16 26 14 15 13 19 -14 38 -17 12
-50 29 -74 39 -42 19 -44 18 -69 0 -25 -19 -29 -19 -88 -4 -39 10 -69 13 -79
7 -9 -5 -50 -20 -89 -35 -80 -28 -101 -17 -28 14 25 11 61 31 79 45 26 20 44
25 89 25 48 0 58 4 76 26 26 33 19 49 -35 71 -65 27 -56 40 31 45 93 4 110 18
110 87 0 27 6 55 14 65 9 11 14 37 12 75 -2 46 2 60 19 76 40 37 14 153 -39
170 -12 3 -21 14 -21 24 0 21 -19 41 -40 41 -18 0 -60 -40 -60 -57 0 -6 -6
-16 -14 -22 -12 -10 -19 -8 -36 9 -18 18 -19 26 -11 57 12 41 1 63 -30 63 -26
0 -30 12 -17 54 10 31 9 39 -4 53 -23 22 -92 19 -124 -6 l-25 -20 -78 34
c-113 48 -129 58 -200 120 -35 31 -66 53 -70 49 -3 -3 13 -23 37 -43 44 -39
52 -64 28 -97 -14 -17 -15 -15 -13 26 2 39 -1 45 -20 48 -33 5 -83 -26 -94
-58 -10 -28 -125 -137 -135 -127 -15 15 2 40 146 219 17 20 30 40 30 43 0 17
-77 101 -88 97 -18 -6 -6 45 20 82 12 16 24 43 29 60 4 17 11 42 15 55 7 23 6
23 -47 18 -67 -6 -109 -17 -179 -50 -30 -13 -74 -28 -97 -32 -24 -4 -45 -11
-49 -16 -3 -5 -16 -9 -30 -9 -13 0 -58 -18 -100 -40 -59 -31 -80 -38 -90 -29
-22 18 -17 34 32 106 57 83 42 95 -30 24 -55 -54 -66 -60 -66 -36 0 8 13 21
29 30 19 9 32 25 36 45 4 16 11 30 16 30 5 0 9 12 9 26 0 46 29 92 66 106 23
8 34 18 34 32 0 11 18 38 39 61 23 23 52 72 71 115 28 66 31 84 28 148 -3 61
-7 76 -25 90 -13 10 -27 39 -35 72 -12 50 -17 57 -59 79 l-46 25 -31 -23 c-18
-12 -32 -31 -32 -41 0 -26 -48 -80 -71 -80 -12 0 -25 13 -36 38 -17 34 -22 37
-68 42 -28 3 -60 11 -72 18 -16 9 -29 9 -49 2 -29 -12 -29 -19 -4 78 5 24 8
47 5 53 -4 5 -28 9 -54 9 -55 0 -85 23 -79 62 2 18 15 27 59 43 61 22 175 109
202 154 23 39 21 68 -7 133 -15 35 -33 58 -50 66 -14 6 -26 15 -26 20 0 19 60
64 133 97 43 20 81 43 84 51 6 16 133 84 156 84 18 0 147 67 167 87 13 13 9
14 -35 8 -27 -4 -76 -16 -107 -26 -64 -21 -73 -20 -145 29 -47 31 -55 33 -84
23 -82 -29 -169 -108 -169 -154 0 -8 -9 -22 -20 -32 -11 -10 -20 -26 -20 -35
0 -10 -13 -23 -30 -30 -23 -9 -29 -17 -25 -31 8 -25 -35 -51 -122 -74 -54 -15
-72 -16 -97 -6 -29 11 -33 9 -53 -16 -13 -16 -23 -36 -23 -45 0 -24 20 -109
31 -130 13 -26 -36 -77 -82 -84 -33 -6 -38 -3 -44 17 -10 34 -35 59 -57 59
-13 0 -25 13 -36 39 -14 32 -22 39 -42 38 -19 -2 -26 3 -28 21 -4 25 -10 27
-35 7 -21 -15 -87 -9 -99 8 -4 6 -4 33 -1 60 6 48 5 49 -17 42 -18 -6 -27 -1
-45 21 l-22 28 48 67 49 67 -6 86 c-7 86 -7 86 -43 109 -24 15 -52 22 -84 22
-45 0 -48 1 -42 23 5 22 4 23 -25 17 -23 -5 -30 -3 -30 9 0 18 -15 21 -25 6
-3 -5 -13 -10 -21 -10 -11 0 -13 6 -9 21 5 14 2 25 -6 30 -12 7 -12 12 -1 30
9 14 10 25 4 31 -7 7 -4 21 9 42 26 42 24 54 -11 74 -16 9 -30 21 -30 25 0 11
-71 72 -84 72 -6 0 -15 -10 -22 -23 l-11 -22 -38 30 c-27 21 -49 30 -75 30
-35 0 -37 -2 -51 -47z"/>
<path d="M2390 3629 c0 -17 62 -89 77 -89 9 0 1 16 -21 42 -20 23 -36 45 -36
50 0 4 -4 8 -10 8 -5 0 -10 -5 -10 -11z"/>
<path d="M10648 2465 c6 -48 20 -54 19 -8 -1 20 -7 38 -13 40 -6 2 -8 -10 -6
-32z"/>
<path d="M8787 1225 c-8 -48 -26 -189 -24 -192 1 0 11 -3 22 -5 17 -3 20 3 22
47 1 28 -1 82 -5 120 -8 67 -8 68 -15 30z"/>
<path d="M8842 1163 c1 -27 -2 -65 -7 -87 -6 -31 -5 -38 6 -34 25 8 33 168 8
168 -4 0 -7 -21 -7 -47z"/>
<path d="M8656 1169 c-3 -8 -4 -39 -3 -69 2 -41 6 -55 17 -55 12 0 14 12 12
60 -3 59 -17 92 -26 64z"/>
</g>
</svg>
